<?xml version="1.0" standalone="no"?>
<!DOCTYPE svg PUBLIC "-//W3C//DTD SVG 20010904//EN"
 "http://www.w3.org/TR/2001/REC-SVG-20010904/DTD/svg10.dtd">
<svg version="1.0" xmlns="http://www.w3.org/2000/svg"
 width="980.000000pt" height="980.000000pt" viewBox="0 0 980.000000 980.000000"
 preserveAspectRatio="xMidYMid meet">

<g transform="translate(0.000000,980.000000) scale(0.100000,-0.100000)"
fill="#000000" stroke="none">
<path d="M4655 8412 c-132 -103 -440 -345 -685 -537 -245 -192 -560 -439 -700
-549 -140 -110 -292 -229 -337 -264 -47 -37 -80 -70 -76 -76 4 -6 74 -99 157
-206 142 -183 298 -360 317 -360 5 0 9 61 9 134 l0 135 157 123 c412 324 608
478 837 658 136 107 260 204 274 215 15 11 83 64 151 117 68 54 128 98 135 98
6 0 32 -17 58 -37 46 -38 441 -348 527 -413 25 -20 132 -103 236 -186 105 -82
315 -248 468 -368 152 -119 277 -224 277 -232 0 -8 0 -430 0 -939 0 -509 0
-930 0 -935 0 -7 -169 -9 -502 -8 l-503 3 -3 698 -2 697 -548 -2 -547 -3 -3
-697 -2 -698 -495 0 c-272 0 -495 -3 -495 -8 0 -4 112 -119 250 -256 l249
-249 273 7 c150 4 404 12 563 17 723 24 756 24 826 -1 145 -51 246 -161 283
-306 20 -77 20 -127 1 -200 -20 -76 -47 -132 -92 -184 -47 -54 -147 -120 -184
-120 -15 0 -30 -4 -33 -9 -3 -5 -20 -11 -38 -14 -18 -3 -51 -10 -73 -17 -22
-6 -51 -14 -65 -16 -14 -3 -34 -9 -45 -14 -11 -5 -31 -11 -45 -13 -14 -3 -59
-14 -100 -25 -41 -12 -138 -37 -215 -57 -282 -74 -440 -116 -614 -164 -41 -11
-76 -22 -78 -25 -3 -2 15 -15 39 -29 81 -46 133 -74 203 -113 39 -21 112 -62
164 -91 51 -29 95 -53 97 -53 2 0 27 -14 55 -31 29 -17 100 -55 158 -86 58
-31 127 -69 154 -85 26 -15 50 -28 52 -28 2 0 27 -14 56 -30 28 -17 93 -53
144 -81 l93 -49 78 48 c105 65 310 193 409 255 44 28 127 79 185 115 58 36
123 77 145 92 22 15 56 37 75 48 19 11 112 68 205 127 94 59 184 115 200 125
17 10 141 87 276 172 247 155 287 175 389 198 70 15 197 5 260 -22 14 -6 36
-15 50 -21 62 -27 152 -101 194 -160 70 -99 160 -258 150 -266 -5 -5 -193
-140 -419 -300 -225 -161 -430 -307 -455 -325 -25 -18 -83 -60 -128 -92 -46
-32 -107 -76 -135 -96 -29 -21 -71 -51 -94 -67 -93 -65 -501 -357 -548 -391
-27 -20 -88 -63 -134 -96 -46 -32 -115 -82 -155 -111 -119 -86 -260 -165 -363
-205 -13 -4 -33 -12 -45 -17 -13 -5 -41 -13 -63 -19 -22 -6 -58 -15 -80 -21
-76 -19 -110 -23 -265 -28 -100 -3 -175 -1 -210 7 -158 34 -243 57 -295 80
-11 5 -76 29 -145 55 -176 66 -282 106 -305 115 -11 4 -56 22 -100 38 -44 17
-129 49 -189 72 -60 22 -153 57 -205 76 -98 36 -117 43 -161 62 -22 10 -205
79 -432 163 -151 56 -236 88 -488 183 -147 55 -262 94 -272 90 -10 -3 -69 -34
-131 -68 -61 -35 -137 -76 -167 -93 -30 -16 -71 -39 -90 -50 -19 -11 -71 -39
-115 -63 -44 -23 -84 -46 -90 -50 -5 -4 -50 -29 -100 -55 -49 -27 -108 -58
-130 -70 -22 -13 -103 -57 -180 -100 -77 -42 -144 -81 -150 -86 -13 -12 416
-443 555 -557 58 -48 107 -89 110 -92 33 -38 424 -302 580 -391 136 -79 357
-189 485 -243 111 -47 122 -52 186 -80 67 -29 396 -137 479 -156 19 -5 71 -18
115 -30 44 -11 100 -25 125 -29 25 -5 79 -15 120 -24 64 -13 186 -33 330 -53
526 -74 1191 -37 1740 97 211 52 546 158 675 214 17 7 66 28 110 46 187 78
551 270 681 359 23 17 45 30 48 30 13 0 255 174 376 270 154 122 227 186 384
340 399 390 708 809 953 1295 62 123 85 173 149 323 8 17 20 47 28 65 21 48
53 137 102 285 81 246 144 502 185 755 l13 78 -1409 1411 c-1286 1288 -1425
1423 -1575 1542 -91 72 -181 143 -200 159 -72 56 -357 280 -410 321 -64 49
-574 450 -733 575 -60 47 -124 97 -142 111 -19 14 -106 82 -195 153 -88 70
-167 127 -173 127 -7 0 -121 -85 -252 -188z"/>
</g>
</svg>
