<?xml version="1.0" standalone="no"?>
<!DOCTYPE svg PUBLIC "-//W3C//DTD SVG 20010904//EN"
 "http://www.w3.org/TR/2001/REC-SVG-20010904/DTD/svg10.dtd">
<svg version="1.0" xmlns="http://www.w3.org/2000/svg"
 width="225.000000pt" height="225.000000pt" viewBox="0 0 225.000000 225.000000"
 preserveAspectRatio="xMidYMid meet">

<g transform="translate(0.000000,225.000000) scale(0.100000,-0.100000)"
fill="#000000" stroke="none">
<path d="M1082 2070 c-12 -5 -99 -68 -192 -140 -94 -71 -173 -130 -175 -130
-3 0 -5 36 -5 80 0 98 -3 100 -132 100 -152 0 -138 20 -138 -204 l-1 -191
-100 -75 c-55 -41 -107 -87 -115 -102 -41 -79 17 -168 109 -168 40 0 30 -7
474 332 172 131 315 238 317 238 3 0 167 -123 365 -274 198 -151 369 -280 380
-285 58 -32 143 4 162 67 25 83 29 78 -423 423 -226 173 -423 319 -437 326
-31 14 -58 15 -89 3z m418 -321 c476 -363 480 -366 480 -391 0 -30 -28 -58
-59 -58 -19 0 -135 84 -406 290 -208 160 -384 290 -390 290 -6 0 -181 -130
-390 -290 -251 -191 -388 -289 -404 -290 -56 -1 -79 59 -38 97 69 65 815 623
832 623 11 0 180 -122 375 -271z m-850 84 l-1 -88 -66 -50 c-36 -27 -70 -51
-74 -53 -5 -2 -9 60 -9 137 l0 141 75 0 75 0 0 -87z"/>
<path d="M967 1594 c-4 -4 -7 -78 -7 -165 0 -134 2 -158 16 -163 23 -9 287 -7
302 2 9 7 12 47 10 168 l-3 159 -156 3 c-85 1 -158 -1 -162 -4z m263 -159 l0
-105 -105 0 -105 0 0 105 0 105 105 0 105 0 0 -105z"/>
<path d="M1020 1179 c-14 -5 -45 -27 -70 -48 l-45 -38 -128 -7 -127 -8 0 26
c0 14 -9 35 -20 46 -18 18 -33 20 -169 20 l-150 0 -20 -26 c-20 -26 -21 -38
-21 -381 l0 -354 25 -24 c23 -24 28 -25 170 -25 139 0 147 1 167 23 l19 22 85
-82 c117 -113 189 -143 268 -113 21 8 33 5 61 -15 20 -13 49 -26 64 -30 41 -9
96 17 116 54 13 26 19 30 35 21 49 -26 127 4 150 59 9 23 19 31 37 31 37 0 78
26 95 59 l14 31 23 -30 22 -30 148 0 c210 0 191 -42 191 408 0 349 -1 363 -20
382 -18 18 -33 20 -169 20 l-150 0 -20 -26 c-12 -15 -21 -39 -21 -55 l0 -28
-87 30 c-216 73 -419 111 -473 88z m210 -79 c47 -11 145 -39 218 -62 l132 -41
0 -214 0 -213 -26 -12 c-23 -11 -28 -9 -52 22 -60 77 -270 326 -285 338 -24
20 -92 26 -127 12 -17 -7 -43 -31 -58 -54 -38 -56 -85 -86 -136 -86 -54 0 -92
20 -88 46 5 31 90 150 157 220 l62 64 59 0 c33 0 97 -9 144 -20z m-640 -335
l0 -345 -125 0 -125 0 0 345 0 345 125 0 125 0 0 -345z m1308 3 l-3 -343 -125
0 -125 0 -3 330 c-1 181 0 336 3 342 3 10 38 13 130 13 l125 0 -2 -342z
m-1081 215 c-45 -63 -77 -127 -77 -155 0 -58 63 -98 153 -98 70 0 132 32 175
90 38 51 74 70 100 54 21 -13 317 -369 336 -404 18 -34 4 -68 -31 -76 -25 -7
-36 2 -138 110 -81 85 -117 117 -131 114 -40 -7 -24 -38 75 -148 56 -61 101
-117 101 -125 0 -19 -36 -55 -54 -55 -20 0 -77 49 -157 134 -50 54 -78 76 -95
76 -44 0 -28 -37 51 -123 77 -84 82 -95 65 -128 -20 -36 -60 -23 -155 46 -49
36 -93 64 -99 62 -5 -2 -14 -11 -20 -21 -9 -14 -6 -22 17 -41 31 -27 33 -35
12 -35 -38 0 -107 50 -198 143 l-97 100 2 256 3 256 80 6 c44 3 88 6 98 7 15
2 13 -6 -16 -45z m760 -505 c-3 -8 -6 -5 -6 6 -1 11 2 17 5 13 3 -3 4 -12 1
-19z"/>
</g>
</svg>
